<?xml version="1.0" encoding="utf-8"?>
<!-- Generator: Adobe Illustrator 25.0.1, SVG Export Plug-In . SVG Version: 6.00 Build 0)  -->
<svg version="1.1" id="Layer_1" xmlns="http://www.w3.org/2000/svg" xmlns:xlink="http://www.w3.org/1999/xlink" x="0px" y="0px"
	 viewBox="0 0 300 300" style="enable-background:new 0 0 300 300;" xml:space="preserve">
<style type="text/css">
	.st0{fill:#ADF7B6;}
	.st1{fill:#00E6D1;}
	.st2{fill:#1789FC;}
	.st3{fill:#231F20;}
</style>
<g>
	<polygon class="st0" points="290.6,109.3 211.3,9.5 164.9,46.4 128,0 28.2,79.3 65.1,125.7 18.7,162.6 98,262.4 144.4,225.5 
		181.3,271.9 281.1,192.6 244.2,146.2 	"/>
	<polygon class="st1" points="273.3,115.5 177.7,31.2 138.5,75.6 94,36.4 9.7,132 54.1,171.2 14.9,215.7 110.5,300 149.7,255.6 
		194.2,294.8 278.5,199.2 234.1,160 	"/>
	<polygon class="st2" points="65.4,148.3 23.5,106.4 106.6,23.2 99.5,16.2 9.4,106.4 51.3,148.3 9.4,190.2 99.5,280.3 106.6,273.3 
		23.5,190.2 	"/>
	
		<rect x="164.5" y="234.7" transform="matrix(0.7071 -0.7071 0.7071 0.7071 -133.7722 195.7828)" class="st2" width="9.9" height="49.3"/>
	
		<rect x="144.8" y="32.2" transform="matrix(0.7071 -0.7071 0.7071 0.7071 23.3472 130.7018)" class="st2" width="49.3" height="9.9"/>
	
		<rect x="122.6" y="12.5" transform="matrix(0.7071 -0.7071 0.7071 0.7071 11.0704 101.0629)" class="st3" width="9.9" height="49.3"/>
	
		<rect x="102.9" y="254.4" transform="matrix(0.7071 -0.7071 0.7071 0.7071 -146.0491 166.1437)" class="st3" width="49.3" height="9.9"/>
	<polygon class="st3" points="287.6,106.4 197.4,16.2 190.4,23.2 273.5,106.4 231.6,148.3 273.5,190.2 190.4,273.3 197.4,280.3 
		287.6,190.2 245.7,148.3 	"/>
	<polygon class="st3" points="273.5,106.4 190.4,23.2 155.5,58.1 148.5,51.1 141.5,58.1 106.6,23.2 23.5,106.4 65.4,148.3 
		23.5,190.2 106.6,273.3 141.5,238.4 148.5,245.4 155.5,238.4 190.4,273.3 273.5,190.2 231.6,148.3 	"/>
</g>
</svg>
