<?xml version="1.0" encoding="utf-8"?>
<!-- Generator: Adobe Illustrator 25.0.1, SVG Export Plug-In . SVG Version: 6.00 Build 0)  -->
<svg version="1.1" id="Layer_1" xmlns="http://www.w3.org/2000/svg" xmlns:xlink="http://www.w3.org/1999/xlink" x="0px" y="0px"
	 viewBox="0 0 300 300" style="enable-background:new 0 0 300 300;" xml:space="preserve">
<style type="text/css">
	.st0{fill:#FF8427;}
	.st1{fill:#F1FF18;}
	.st2{fill:#FFC800;}
	.st3{fill:#231F20;}
</style>
<g>
	<path class="st0" d="M172.9,112.9c3.1,0,5.8,1.1,8,3.3c2.2,2.2,3.3,4.9,3.3,8s-1.1,5.8-3.3,8c-2.2,2.2-4.9,3.3-8,3.3
		s-5.8-1.1-8-3.3c-2.2-2.2-3.3-4.9-3.3-8s1.1-5.8,3.3-8C167.1,114,169.8,112.9,172.9,112.9 M172.9,0C104.3,0,48.6,55.6,48.6,124.2
		s55.6,124.2,124.2,124.2c68.6,0,124.2-55.6,124.2-124.2S241.5,0,172.9,0L172.9,0z"/>
	<path class="st1" d="M168.7,164.5c3.1,0,5.8,1.1,8,3.3c2.2,2.2,3.3,4.9,3.3,8s-1.1,5.8-3.3,8c-2.2,2.2-4.9,3.3-8,3.3
		s-5.8-1.1-8-3.3c-2.2-2.2-3.3-4.9-3.3-8s1.1-5.8,3.3-8C162.9,165.6,165.6,164.5,168.7,164.5 M168.7,51.6
		c-68.6,0-124.2,55.6-124.2,124.2S100.1,300,168.7,300c68.6,0,124.2-55.6,124.2-124.2S237.3,51.6,168.7,51.6L168.7,51.6z"/>
	<path class="st2" d="M127.1,124.5c3.1,0,5.8,1.1,8,3.3c2.2,2.2,3.3,4.9,3.3,8c0,3.1-1.1,5.8-3.3,8c-2.2,2.2-4.9,3.3-8,3.3
		s-5.8-1.1-8-3.3c-2.2-2.2-3.3-4.9-3.3-8c0-3.1,1.1-5.8,3.3-8C121.4,125.6,124,124.5,127.1,124.5 M127.1,11.6
		C58.5,11.6,2.9,67.2,2.9,135.8S58.5,260,127.1,260c68.6,0,124.2-55.6,124.2-124.2S195.7,11.6,127.1,11.6L127.1,11.6z"/>
	<path class="st3" d="M151.9,139.1c3.1,0,5.8,1.1,8,3.3c2.2,2.2,3.3,4.9,3.3,8c0,3.1-1.1,5.8-3.3,8c-2.2,2.2-4.9,3.3-8,3.3
		s-5.8-1.1-8-3.3c-2.2-2.2-3.3-4.9-3.3-8c0-3.1,1.1-5.8,3.3-8C146.2,140.2,148.8,139.1,151.9,139.1 M151.9,26.2
		c-68.6,0-124.2,55.6-124.2,124.2s55.6,124.2,124.2,124.2c68.6,0,124.2-55.6,124.2-124.2S220.5,26.2,151.9,26.2L151.9,26.2z"/>
</g>
</svg>
