<?xml version="1.0" encoding="utf-8"?>
<!-- Generator: Adobe Illustrator 25.0.1, SVG Export Plug-In . SVG Version: 6.00 Build 0)  -->
<svg version="1.1" id="Layer_1" xmlns="http://www.w3.org/2000/svg" xmlns:xlink="http://www.w3.org/1999/xlink" x="0px" y="0px"
	 viewBox="0 0 300 300" style="enable-background:new 0 0 300 300;" xml:space="preserve">
<style type="text/css">
	.st0{fill:#FFA69E;}
	.st1{fill:#ADF7B6;}
	.st2{fill:#1789FC;}
	.st3{fill:#231F20;}
</style>
<g>
	<polygon class="st0" points="296.1,126.9 200.6,31.4 165.2,66.8 129.9,31.4 34.4,126.9 69.7,162.3 34.4,197.6 129.9,293.1 
		165.2,257.8 200.6,293.1 296.1,197.6 260.8,162.3 	"/>
	<polygon class="st1" points="300,102.4 204.5,6.9 169.1,42.2 133.8,6.9 38.3,102.4 73.6,137.7 38.3,173.1 133.8,268.6 169.1,233.2 
		204.5,268.6 300,173.1 264.7,137.7 	"/>
	<polygon class="st2" points="261.7,113.8 166.2,18.3 130.9,53.6 95.5,18.3 0,113.8 35.3,149.1 0,184.5 95.5,280 130.9,244.7 
		166.2,280 261.7,184.5 226.4,149.1 	"/>
	<polygon class="st3" points="280.9,121.2 185.3,25.7 150,61 114.7,25.7 19.1,121.2 54.5,156.5 19.1,191.9 114.7,287.4 150,252 
		185.3,287.4 280.9,191.9 245.5,156.5 	"/>
</g>
</svg>
