<?xml version="1.0" encoding="iso-8859-1"?>
<!-- Generator: Adobe Illustrator 20.0.0, SVG Export Plug-In . SVG Version: 6.00 Build 0)  -->
<svg version="1.1" id="Layer_1" xmlns="http://www.w3.org/2000/svg" xmlns:xlink="http://www.w3.org/1999/xlink" x="0px" y="0px"
	 viewBox="-692.359 857.637 460.777 460.776" style="enable-background:new -692.359 857.637 460.777 460.776;"
	 xml:space="preserve">
<g>
	<path style="fill:#E6E6E6;" d="M-567.087,1031.468c11.586,1.829,18.58,2.934,28.312,12.666
		c9.733,9.733,10.838,16.727,12.667,28.314c2.235,14.151,5.294,33.531,25.731,53.968c20.435,20.435,39.817,23.494,53.966,25.729
		c11.586,1.829,18.58,2.934,28.312,12.666c9.736,9.735,10.839,16.731,12.669,28.318c2.235,14.151,5.297,33.531,25.734,53.969
		s39.819,23.499,53.969,25.734c11.587,1.83,18.584,2.935,28.318,12.669l32.913-32.913c-20.437-20.437-39.818-23.497-53.968-25.733
		c-11.589-1.831-18.584-2.935-28.319-12.67c-9.736-9.735-10.839-16.731-12.669-28.318c-2.237-14.151-5.298-33.532-25.734-53.969
		c-20.435-20.435-39.815-23.495-53.967-25.73c-11.586-1.829-18.58-2.934-28.312-12.666c-9.733-9.733-10.837-16.728-12.667-28.314
		c-2.235-14.151-5.295-33.531-25.73-53.967c-20.436-20.437-39.815-23.495-53.966-25.729c-11.587-1.83-18.58-2.934-28.312-12.666
		c-9.732-9.732-10.836-16.725-12.665-28.312c-2.234-14.15-5.293-33.53-25.729-53.966l-32.913,32.913
		c9.732,9.732,10.836,16.725,12.665,28.311c2.235,14.149,5.293,33.53,25.729,53.966
		C-600.617,1026.175-581.237,1029.232-567.087,1031.468z"/>
	<path style="fill:#CE5B53;" d="M-534.174,998.555c11.586,1.829,18.58,2.934,28.312,12.666c9.733,9.733,10.838,16.727,12.667,28.314
		c2.235,14.151,5.294,33.531,25.731,53.968c20.435,20.435,39.817,23.494,53.966,25.729c11.586,1.829,18.58,2.934,28.312,12.666
		c9.736,9.735,10.839,16.731,12.669,28.318c2.235,14.151,5.297,33.531,25.734,53.969s39.819,23.499,53.969,25.734
		c11.587,1.83,18.584,2.935,28.318,12.669l32.913-32.913c-20.437-20.437-39.818-23.497-53.968-25.733
		c-11.589-1.831-18.584-2.935-28.319-12.67c-9.736-9.735-10.839-16.731-12.669-28.318c-2.237-14.151-5.298-33.532-25.734-53.969
		c-20.435-20.435-39.815-23.495-53.967-25.73c-11.586-1.829-18.58-2.934-28.312-12.666c-9.733-9.733-10.837-16.728-12.667-28.314
		c-2.235-14.151-5.295-33.531-25.73-53.967c-20.437-20.437-39.815-23.495-53.966-25.729c-11.587-1.83-18.58-2.934-28.312-12.666
		c-9.732-9.732-10.836-16.725-12.665-28.311c-2.234-14.15-5.293-33.53-25.729-53.966l-32.913,32.913
		c9.732,9.732,10.836,16.725,12.665,28.311c2.235,14.149,5.293,33.53,25.729,53.966
		C-567.705,993.262-548.325,996.319-534.174,998.555z"/>
	<g>
		<path style="fill:#CE5B53;" d="M-297.408,1285.501c-20.437-20.437-39.818-23.497-53.968-25.733
			c-11.589-1.831-18.584-2.935-28.319-12.67c-9.736-9.736-10.839-16.731-12.669-28.318c-2.237-14.151-5.298-33.532-25.734-53.969
			c-20.435-20.435-39.817-23.494-53.967-25.73c-11.586-1.829-18.58-2.934-28.312-12.666c-9.733-9.733-10.837-16.728-12.667-28.314
			c-2.236-14.15-5.294-33.531-25.73-53.967c-20.437-20.437-39.817-23.494-53.966-25.729c-11.587-1.83-18.58-2.934-28.312-12.666
			c-9.732-9.732-10.836-16.725-12.665-28.311c-2.235-14.149-5.293-33.53-25.729-53.966l-32.913,32.913
			c9.732,9.732,10.836,16.725,12.665,28.311c2.235,14.149,5.293,33.53,25.729,53.966s39.815,23.493,53.966,25.729
			c11.586,1.829,18.58,2.934,28.313,12.666c9.733,9.733,10.838,16.727,12.667,28.314c2.235,14.151,5.294,33.531,25.731,53.968
			c20.435,20.436,39.817,23.494,53.966,25.729c11.586,1.829,18.58,2.934,28.312,12.666c9.736,9.736,10.839,16.731,12.669,28.318
			c2.235,14.151,5.297,33.531,25.734,53.969c20.438,20.438,39.819,23.498,53.969,25.734c11.587,1.83,18.584,2.935,28.318,12.669
			L-297.408,1285.501z"/>
	</g>
</g>
<path style="fill:#B83D2D;" d="M-352.273,1098.985c-11.254-11.254-22.185-17.232-32.102-20.711
	c-7.689,13.312-9.615,25.509-11.152,35.235c-1.829,11.586-2.934,18.58-12.666,28.312c-9.733,9.733-16.728,10.837-28.314,12.667
	c-14.15,2.236-33.531,5.295-53.967,25.73c-0.773,0.773-1.514,1.545-2.238,2.315c4.827,1.17,9.324,1.882,13.388,2.524
	c11.586,1.829,18.58,2.934,28.312,12.666c2.34,2.34,4.172,4.52,5.644,6.645c4.799-2.108,9.769-2.902,16.12-3.904
	c14.151-2.235,33.531-5.294,53.968-25.731c20.435-20.435,23.494-39.817,25.729-53.966c0.927-5.872,1.672-10.563,3.445-15.03
	C-347.966,1103.503-350.007,1101.251-352.273,1098.985z"/>
<path style="fill:#B83D2D;" d="M-450.936,1019.38c0.173-1.095,0.34-2.138,0.508-3.157c-3.106-11.376-9.02-24.414-22.521-37.914
	c-2.937-2.937-5.851-5.504-8.732-7.773c-11.146,15.769-13.455,30.332-15.232,41.586c-1.829,11.586-2.934,18.58-12.666,28.313
	c-9.733,9.733-16.728,10.837-28.314,12.667c-11.669,1.843-26.896,4.257-43.336,16.502c3.055,1.694,6.13,4.031,9.542,7.443
	c9.733,9.733,10.838,16.727,12.667,28.314c0.281,1.778,0.575,3.64,0.915,5.575c9.298-8.965,16.226-10.083,27.472-11.858
	c14.151-2.235,33.531-5.295,53.968-25.731C-456.23,1052.911-453.171,1033.529-450.936,1019.38z"/>
<path style="fill:#E6E6E6;" d="M-518.528,1193.141c1.829-11.586,2.934-18.58,12.666-28.312c9.733-9.733,16.727-10.838,28.314-12.667
	c14.151-2.235,33.531-5.294,53.968-25.731c20.435-20.435,23.494-39.817,25.729-53.966c1.829-11.586,2.934-18.58,12.666-28.312
	c9.736-9.736,16.731-10.839,28.318-12.669c14.151-2.235,33.531-5.297,53.969-25.734c20.438-20.438,23.499-39.819,25.734-53.969
	c1.83-11.587,2.935-18.584,12.669-28.318l-32.913-32.913c-20.437,20.437-23.497,39.818-25.733,53.968
	c-1.831,11.589-2.935,18.584-12.67,28.319s-16.731,10.839-28.318,12.669c-14.151,2.237-33.532,5.298-53.969,25.734
	c-20.435,20.435-23.495,39.816-25.73,53.967c-1.829,11.586-2.934,18.58-12.666,28.312c-9.733,9.733-16.728,10.837-28.314,12.667
	c-14.151,2.235-33.531,5.295-53.967,25.73c-20.437,20.437-23.495,39.815-25.729,53.966c-1.83,11.587-2.934,18.58-12.666,28.312
	c-9.732,9.732-16.725,10.836-28.311,12.665c-14.15,2.234-33.53,5.293-53.966,25.729l32.913,32.913
	c9.732-9.732,16.725-10.836,28.311-12.665c14.149-2.235,33.53-5.293,53.966-25.729
	C-523.821,1226.672-520.764,1207.292-518.528,1193.141z"/>
<path style="fill:#CE5B53;" d="M-551.44,1160.229c1.829-11.586,2.934-18.58,12.666-28.312c9.733-9.733,16.727-10.838,28.314-12.667
	c14.151-2.235,33.531-5.295,53.968-25.731c20.435-20.435,23.494-39.817,25.729-53.966c1.829-11.586,2.934-18.58,12.666-28.313
	c9.736-9.736,16.731-10.839,28.318-12.669c14.151-2.235,33.531-5.297,53.969-25.734c20.438-20.438,23.499-39.819,25.734-53.969
	c1.83-11.587,2.935-18.584,12.669-28.318l-32.913-32.913c-20.437,20.437-23.497,39.818-25.733,53.968
	c-1.831,11.589-2.935,18.584-12.67,28.319s-16.731,10.839-28.318,12.669c-14.151,2.237-33.532,5.298-53.969,25.734
	c-20.435,20.435-23.495,39.815-25.73,53.967c-1.829,11.586-2.934,18.58-12.666,28.312c-9.733,9.733-16.728,10.837-28.314,12.667
	c-14.151,2.235-33.531,5.295-53.967,25.73c-20.437,20.437-23.495,39.815-25.729,53.966c-1.83,11.587-2.934,18.58-12.666,28.312
	c-9.732,9.732-16.725,10.836-28.311,12.665c-14.15,2.234-33.53,5.293-53.966,25.729l32.913,32.913
	c9.732-9.732,16.725-10.836,28.311-12.665c14.149-2.235,33.53-5.293,53.966-25.729
	C-556.734,1193.759-553.676,1174.379-551.44,1160.229z"/>
<g>
	<path style="fill:#CE5B53;" d="M-264.495,923.462c-20.437,20.437-23.497,39.818-25.733,53.968
		c-1.831,11.589-2.935,18.584-12.67,28.319s-16.731,10.839-28.318,12.669c-14.151,2.237-33.532,5.298-53.969,25.734
		c-20.435,20.435-23.494,39.816-25.73,53.967c-1.829,11.586-2.934,18.58-12.666,28.312c-9.733,9.733-16.728,10.837-28.314,12.667
		c-14.15,2.236-33.531,5.294-53.967,25.73c-20.437,20.437-23.494,39.817-25.729,53.966c-1.83,11.587-2.934,18.58-12.666,28.312
		c-9.732,9.732-16.725,10.836-28.311,12.665c-14.149,2.235-33.53,5.293-53.966,25.729l32.913,32.913
		c9.732-9.732,16.725-10.836,28.311-12.665c14.149-2.235,33.53-5.293,53.966-25.729c20.435-20.435,23.493-39.815,25.729-53.966
		c1.829-11.586,2.934-18.58,12.666-28.313c9.733-9.733,16.727-10.838,28.314-12.667c14.151-2.235,33.531-5.295,53.968-25.731
		c20.435-20.435,23.494-39.816,25.729-53.966c1.829-11.586,2.934-18.58,12.666-28.312c9.736-9.736,16.731-10.839,28.318-12.669
		c14.151-2.235,33.531-5.297,53.969-25.734c20.438-20.438,23.498-39.819,25.734-53.969c1.83-11.587,2.935-18.584,12.669-28.318
		L-264.495,923.462z"/>
</g>
</svg>
