<?xml version="1.0" encoding="iso-8859-1"?>
<!-- Generator: Adobe Illustrator 20.0.0, SVG Export Plug-In . SVG Version: 6.00 Build 0)  -->
<svg version="1.1" id="Layer_1" xmlns="http://www.w3.org/2000/svg" xmlns:xlink="http://www.w3.org/1999/xlink" x="0px" y="0px"
	 viewBox="0 0 460.778 460.778" style="enable-background:new 0 0 460.778 460.778;" xml:space="preserve">
<g>
	<g>
		<path style="fill:#3B3836;" d="M140.92,302.592c1.829-11.586,2.934-18.58,12.666-28.312c9.733-9.733,16.727-10.838,28.314-12.667
			c14.151-2.235,33.531-5.294,53.968-25.731c20.435-20.435,23.494-39.817,25.729-53.966c1.829-11.586,2.934-18.58,12.666-28.312
			c9.736-9.736,16.731-10.839,28.318-12.669c14.151-2.235,33.531-5.297,53.969-25.734c20.438-20.438,23.499-39.819,25.734-53.969
			c1.83-11.587,2.935-18.584,12.669-28.318L362.04,0.001c-20.437,20.437-23.497,39.818-25.733,53.968
			c-1.831,11.589-2.935,18.584-12.67,28.319s-16.731,10.839-28.318,12.669c-14.151,2.237-33.532,5.298-53.969,25.734
			c-20.435,20.435-23.495,39.815-25.73,53.967c-1.829,11.586-2.934,18.58-12.666,28.312c-9.733,9.733-16.728,10.837-28.314,12.667
			c-14.151,2.235-33.531,5.295-53.967,25.73c-20.437,20.437-23.495,39.815-25.729,53.966c-1.83,11.587-2.934,18.58-12.666,28.312
			c-9.732,9.732-16.725,10.836-28.311,12.665c-14.15,2.234-33.53,5.293-53.966,25.729l32.913,32.913
			c9.732-9.732,16.725-10.836,28.311-12.665c14.149-2.235,33.53-5.293,53.966-25.729
			C135.626,336.122,138.684,316.742,140.92,302.592z"/>
		<g>
			<path style="fill:#3B3836;" d="M427.865,65.825c-20.437,20.437-23.497,39.818-25.733,53.968
				c-1.831,11.589-2.935,18.584-12.67,28.319s-16.731,10.839-28.318,12.669c-14.151,2.237-33.532,5.298-53.969,25.734
				c-20.435,20.435-23.494,39.817-25.73,53.967c-1.829,11.586-2.934,18.58-12.666,28.312c-9.733,9.733-16.728,10.837-28.314,12.667
				c-14.15,2.236-33.531,5.294-53.967,25.73c-20.437,20.437-23.494,39.817-25.729,53.966c-1.83,11.587-2.934,18.58-12.666,28.312
				s-16.725,10.836-28.311,12.665c-14.149,2.235-33.53,5.293-53.966,25.729l32.913,32.913c9.732-9.732,16.725-10.836,28.311-12.665
				c14.149-2.235,33.53-5.293,53.966-25.729s23.493-39.815,25.729-53.966c1.829-11.586,2.934-18.58,12.666-28.313
				c9.733-9.733,16.727-10.838,28.314-12.667c14.151-2.235,33.531-5.294,53.968-25.731c20.435-20.435,23.494-39.817,25.729-53.966
				c1.829-11.586,2.934-18.58,12.666-28.312c9.736-9.736,16.731-10.839,28.318-12.669c14.151-2.235,33.531-5.297,53.969-25.734
				c20.438-20.438,23.498-39.819,25.734-53.969c1.83-11.587,2.935-18.584,12.669-28.318L427.865,65.825z"/>
		</g>
	</g>
	<g>
		<path style="fill:#3B3836;" d="M330.722,233.078c-16.289-12.585-31.451-15.353-43.235-17.228
			c-3.6,9.171-4.924,17.556-6.043,24.632c-1.311,8.303-2.267,14.249-6.275,20.533c1.271,0.211,2.511,0.408,3.71,0.597
			c11.586,1.829,18.58,2.934,28.314,12.667c3.784,3.784,6.253,7.154,7.979,10.54c8.61-14.029,10.643-26.906,12.25-37.079
			C328.322,242.03,329.052,237.435,330.722,233.078z"/>
		<path style="fill:#3B3836;" d="M133.357,247.741c1.607,10.173,3.64,23.05,12.25,37.079c1.725-3.387,4.195-6.757,7.979-10.54
			c9.733-9.733,16.727-10.838,28.314-12.667c1.199-0.189,2.438-0.386,3.71-0.597c-4.008-6.284-4.964-12.23-6.275-20.533
			c-1.118-7.077-2.442-15.462-6.043-24.632c-11.784,1.875-26.946,4.643-43.235,17.228
			C131.726,237.436,132.456,242.03,133.357,247.741z"/>
		<path style="fill:#3B3836;" d="M274.28,307.192c-15.931-15.931-31.22-21.301-43.891-23.953
			c-12.671,2.653-27.96,8.023-43.891,23.953c-3.142,3.142-5.869,6.258-8.25,9.335c13.144,7.484,25.184,9.392,34.806,10.911
			c6.888,1.087,12.153,1.933,17.335,4.473c5.182-2.541,10.447-3.386,17.335-4.473c9.622-1.519,21.661-3.427,34.806-10.911
			C280.15,313.45,277.422,310.333,274.28,307.192z"/>
		<path style="fill:#3B3836;" d="M224.911,235.881c1.836,1.836,3.662,3.526,5.478,5.093c1.816-1.567,3.642-3.257,5.478-5.093
			c11.846-11.846,17.847-23.335,21.239-33.659c-9.048-9.345-10.166-16.28-11.947-27.565c-1.753-11.099-4.017-25.415-14.77-40.934
			c-10.753,15.519-13.017,29.835-14.77,40.934c-1.781,11.285-2.899,18.22-11.947,27.565
			C207.064,212.546,213.065,224.035,224.911,235.881z"/>
		<path style="fill:#3B3836;" d="M38.404,181.025c20.438,20.438,39.818,23.5,53.969,25.734c8.828,1.394,14.993,2.379,21.733,7.068
			c16.73-13.116,32.78-18.26,45.386-20.894c-1.786-2.125-3.736-4.265-5.889-6.418c-20.437-20.437-39.818-23.497-53.969-25.734
			c-11.587-1.83-18.582-2.934-28.318-12.669s-10.839-16.731-12.67-28.319c-2.236-14.15-5.297-33.531-25.733-53.968L0,98.738
			c9.734,9.734,10.839,16.731,12.669,28.318C14.906,141.206,17.967,160.587,38.404,181.025z"/>
		<path style="fill:#3B3836;" d="M378.5,323.645c-9.732-9.732-10.836-16.725-12.666-28.312c-1.725-10.926-3.95-24.971-14.278-40.211
			c-2.481,15.083-7.424,37.846-29.119,61.077c2.92,11.935,8.672,25.881,23.151,40.36c20.435,20.435,39.817,23.494,53.966,25.729
			c11.586,1.829,18.579,2.932,28.311,12.665l32.913-32.913c-20.435-20.435-39.815-23.495-53.966-25.729
			C395.225,334.481,388.233,333.377,378.5,323.645z"/>
		<path style="fill:#3B3836;" d="M312.675,389.47c-9.732-9.732-10.836-16.725-12.666-28.312c-1.042-6.597-2.265-14.333-5.343-22.781
			c-17.031,9.64-32.463,12.084-43.044,13.755c-0.515,0.081-0.998,0.158-1.465,0.232c2.086,4.778,2.878,9.732,3.876,16.054
			c2.236,14.15,5.293,33.53,25.729,53.966c20.435,20.435,39.817,23.494,53.966,25.729c11.586,1.829,18.579,2.933,28.311,12.665
			l32.913-32.913c-20.435-20.435-39.817-23.494-53.966-25.729C329.4,400.306,322.407,399.202,312.675,389.47z"/>
		<path style="fill:#3B3836;" d="M104.23,115.2c20.438,20.438,39.818,23.5,53.969,25.734c11.587,1.83,18.582,2.934,28.318,12.669
			c2.594,2.594,4.561,4.992,6.106,7.335c2.506-12.609,7.407-28.928,20.549-46.003c-18.104-15.292-35.014-17.972-47.712-19.979
			c-11.587-1.83-18.582-2.934-28.318-12.669c-9.736-9.736-10.839-16.731-12.67-28.319C122.236,39.818,119.175,20.437,98.739,0
			L65.826,32.913c9.734,9.734,10.839,16.731,12.669,28.318C80.731,75.381,83.792,94.762,104.23,115.2z"/>
	</g>
</g>
</svg>
