<?xml version="1.0" encoding="iso-8859-1"?>
<!-- Generator: Adobe Illustrator 20.0.0, SVG Export Plug-In . SVG Version: 6.00 Build 0)  -->
<svg version="1.1" id="Layer_1" xmlns="http://www.w3.org/2000/svg" xmlns:xlink="http://www.w3.org/1999/xlink" x="0px" y="0px"
	 viewBox="-1500.352 858.025 479.959 460" style="enable-background:new -1500.352 858.025 479.959 460;" xml:space="preserve">
<path style="fill:#FFFFFF;" d="M-1035.511,1098.029c9.889-15.099,15.119-32.574,15.119-50.495c0-39.357-25.268-75.87-64.335-93.014
	c-14.408-6.314-25.538-18.507-29.717-32.648c-10.669-36.024-34.957-56.532-74.214-62.645c-32.657-5.079-63.314,6.154-80.033,29.411
	c-6.599,9.147-21.678,12.853-36.637,8.987c-11.799-3.088-24.098-4.706-36.557-4.834c-0.47,0-0.9,0-1.33,0
	c-55.235,0-100.851,31.455-108.701,75.167c-2.74,15.185-1.06,30.369,5,45.128c7.179,17.474,0.66,36.279-17.418,50.378
	c-23.248,18.049-36.017,41.922-36.017,67.255c0,33.606,45.776,57.565,84.133,71.717c23.668,8.689,39.217,25.492,42.696,45.958
	l0.19,1.161c7.349,40.272,47.106,68.469,95.462,68.469c1.6,0,3.24-0.043,4.88-0.085c36.717-1.459,71.874-17.964,94.092-44.255
	c6.84-8.071,17.858-12.565,27.498-11.064c16.719,2.534,33.717,1.161,50.626-4.121c39.176-12.182,69.054-45.543,74.364-82.983
	c2.7-19.22-0.7-37.972-9.879-54.36C-1040.391,1113.874-1040.081,1105.014-1035.511,1098.029z"/>
<path style="fill:#F0C854;" d="M-1212.064,1207.303c-63.432,0-115.013-51.581-115.013-115.013s51.581-115.013,115.013-115.013
	s115.014,51.623,115.014,115.013C-1097.05,1155.722-1148.631,1207.303-1212.064,1207.303z"/>
<path style="fill:#DDB84E;" d="M-1194.988,1190.227c-63.432,0-115.013-51.581-115.013-115.013c0-27.375,9.613-52.538,25.633-72.305
	c-26.037,21.101-42.709,53.323-42.709,89.381c0,63.432,51.581,115.013,115.013,115.013c36.057,0,68.28-16.672,89.381-42.709
	C-1142.45,1180.614-1167.613,1190.227-1194.988,1190.227z"/>
<path style="fill:#F5D98A;" d="M-1182.917,1092.289c-16.075,0-29.146-13.072-29.146-29.146s13.072-29.146,29.146-29.146
	c16.075,0,29.146,13.082,29.146,29.146C-1153.771,1079.218-1166.842,1092.289-1182.917,1092.289z"/>
</svg>
