<?xml version="1.0" encoding="iso-8859-1"?>
<!-- Generator: Adobe Illustrator 20.0.0, SVG Export Plug-In . SVG Version: 6.00 Build 0)  -->
<svg version="1.1" id="Layer_1" xmlns="http://www.w3.org/2000/svg" xmlns:xlink="http://www.w3.org/1999/xlink" x="0px" y="0px"
	 viewBox="0 0 479.959 460" style="enable-background:new 0 0 479.959 460;" xml:space="preserve">
<path style="fill:#3B3836;" d="M464.84,240.005c9.889-15.099,15.119-32.574,15.119-50.495c0-39.357-25.268-75.87-64.335-93.014
	c-14.408-6.314-25.538-18.507-29.717-32.648C375.238,27.824,350.95,7.316,311.693,1.203c-32.657-5.079-63.314,6.154-80.033,29.411
	c-6.599,9.147-21.678,12.853-36.637,8.987c-11.799-3.088-24.098-4.706-36.557-4.834c-0.47,0-0.9,0-1.33,0
	c-55.235,0-100.851,31.455-108.701,75.167c-2.74,15.185-1.06,30.369,5,45.128c7.179,17.474,0.66,36.279-17.418,50.378
	C12.769,223.489,0,247.363,0,272.695c0,33.606,45.776,57.565,84.133,71.717c23.668,8.689,39.217,25.492,42.696,45.958l0.19,1.161
	C134.368,431.803,174.125,460,222.481,460c1.6,0,3.24-0.043,4.88-0.085c36.717-1.459,71.874-17.964,94.092-44.255
	c6.84-8.071,17.858-12.565,27.498-11.064c16.719,2.534,33.717,1.161,50.626-4.121c39.176-12.182,69.054-45.543,74.364-82.983
	c2.7-19.22-0.7-37.972-9.879-54.36C459.96,255.85,460.27,246.99,464.84,240.005z M288.287,349.279
	c-63.432,0-115.013-51.581-115.013-115.013s51.581-115.013,115.013-115.013s115.014,51.623,115.014,115.013
	C403.301,297.698,351.72,349.279,288.287,349.279z"/>
</svg>
