<?xml version="1.0" standalone="yes"?>

<svg version="1.1" viewBox="0.0 0.0 353.9186351706037 284.59580052493436" fill="none" stroke="none" stroke-linecap="square" stroke-miterlimit="10" xmlns="http://www.w3.org/2000/svg" xmlns:xlink="http://www.w3.org/1999/xlink"><clipPath id="p.0"><path d="m0 0l353.91864 0l0 284.5958l-353.91864 0l0 -284.5958z" clip-rule="nonzero"></path></clipPath><g clip-path="url(#p.0)"><path fill="#000000" fill-opacity="0.0" d="m0 0l353.91864 0l0 284.5958l-353.91864 0z" fill-rule="nonzero"></path><path fill="#a25c4e" d="m43.921074 227.9224l0 0c2.4996758 2.8310852 31.367737 -18.573502 64.478615 -47.808487c33.110886 -29.234985 57.926163 -55.229683 55.426483 -58.060776l0 0c-2.4996796 -2.8310928 22.315598 -28.82579 55.426483 -58.060776c33.11087 -29.23499 61.978943 -50.639572 64.47861 -47.80848l36.208527 41.009193c-2.4996643 -2.8310966 -31.367737 18.573494 -64.47861 47.80848c-33.11087 29.234993 -57.926147 55.229683 -55.426483 58.060783c2.4996796 2.8310852 -22.315598 28.82579 -55.426483 58.060776c-33.11087 29.234985 -61.978928 50.639557 -64.47861 47.80847z" fill-rule="nonzero"></path><path stroke="#85200c" stroke-width="3.0" stroke-linejoin="round" stroke-linecap="butt" d="m43.921074 227.9224l0 0c2.4996758 2.8310852 31.367737 -18.573502 64.478615 -47.808487c33.110886 -29.234985 57.926163 -55.229683 55.426483 -58.060776l0 0c-2.4996796 -2.8310928 22.315598 -28.82579 55.426483 -58.060776c33.11087 -29.23499 61.978943 -50.639572 64.47861 -47.80848l36.208527 41.009193c-2.4996643 -2.8310966 -31.367737 18.573494 -64.47861 47.80848c-33.11087 29.234993 -57.926147 55.229683 -55.426483 58.060783c2.4996796 2.8310852 -22.315598 28.82579 -55.426483 58.060776c-33.11087 29.234985 -61.978928 50.639557 -64.47861 47.80847z" fill-rule="nonzero"></path><path fill="#e6ddaa" d="m59.918865 236.18639l0 0c1.3622322 1.46698 27.806065 -20.87439 59.063946 -49.90085c31.257881 -29.026459 55.493095 -53.74626 54.13085 -55.21324l0 0c-1.3622284 -1.4669647 22.872986 -26.186775 54.130875 -55.213234c31.257874 -29.026447 57.70169 -51.36782 59.063934 -49.900845l19.73236 21.249554c-1.3622437 -1.4669762 -27.806091 20.874397 -59.063965 49.90085c-31.257874 29.026451 -55.493088 53.746254 -54.13086 55.213234c1.3622437 1.46698 -22.87297 26.186783 -54.13086 55.21324c-31.257881 29.026443 -57.701706 51.36783 -59.063942 49.90085z" fill-rule="nonzero"></path><path stroke="#dfd7a5" stroke-width="3.0" stroke-linejoin="round" stroke-linecap="butt" d="m59.918865 236.18639l0 0c1.3622322 1.46698 27.806065 -20.87439 59.063946 -49.90085c31.257881 -29.026459 55.493095 -53.74626 54.13085 -55.21324l0 0c-1.3622284 -1.4669647 22.872986 -26.186775 54.130875 -55.213234c31.257874 -29.026447 57.70169 -51.36782 59.063934 -49.900845l19.73236 21.249554c-1.3622437 -1.4669762 -27.806091 20.874397 -59.063965 49.90085c-31.257874 29.026451 -55.493088 53.746254 -54.13086 55.213234c1.3622437 1.46698 -22.87297 26.186783 -54.13086 55.21324c-31.257881 29.026443 -57.701706 51.36783 -59.063942 49.90085z" fill-rule="nonzero"></path><path fill="#a25c4e" d="m294.16293 32.459316c-6.5782776 5.0201225 -27.352142 19.820648 -39.469803 30.120735c-12.117676 10.300091 -22.243652 20.513996 -33.23622 31.67979c-10.992554 11.165794 -24.582672 26.31321 -32.719162 35.314957c-8.136475 9.001755 -11.858704 13.242783 -16.099731 18.695541c-4.241028 5.452759 -1.72966 7.26947 -9.346466 14.020996c-7.616791 6.751541 -24.236206 16.44751 -36.354324 26.48819c-12.118111 10.04068 -26.22747 24.667542 -36.354332 33.755905c-10.126854 9.088364 -19.386696 16.965881 -24.406822 20.774277c-5.0201225 3.8083954 -6.4063873 0.3451538 -5.713909 2.076126c0.69247437 1.730957 6.0603676 8.56955 9.868763 8.309708c3.808403 -0.25984192 0.51750183 1.1237946 12.981628 -9.868774c12.464134 -10.992554 48.300087 -44.74803 61.803154 -56.08661c13.503052 -11.338577 14.021866 -8.482498 19.215225 -11.944885c5.193344 -3.4623718 8.915573 -5.5402374 11.94487 -8.8293915c3.0293121 -3.289154 3.4615173 -5.885391 6.2309723 -10.905518c2.7694702 -5.0201263 2.6824188 -10.040237 10.385834 -19.215225c7.703415 -9.174973 25.101486 -25.188095 35.83464 -35.83464c10.73317 -10.646545 21.1203 -21.3797 28.564316 -28.044617c7.4440002 -6.664917 10.387146 -8.136482 16.099731 -11.944885c5.7125854 -3.8083992 13.24234 -7.6163597 18.175842 -10.90551c4.933502 -3.2891502 9.520996 -7.35783 11.425201 -8.829395" fill-rule="nonzero"></path><path stroke="#cc4125" stroke-width="1.0" stroke-linejoin="round" stroke-linecap="butt" d="m294.16293 32.459316c-6.5782776 5.0201225 -27.352142 19.820648 -39.469803 30.120735c-12.117676 10.300091 -22.243652 20.513996 -33.23622 31.67979c-10.992554 11.165794 -24.582672 26.31321 -32.719162 35.314957c-8.136475 9.001755 -11.858704 13.242783 -16.099731 18.695541c-4.241028 5.452759 -1.72966 7.26947 -9.346466 14.020996c-7.616791 6.751541 -24.236206 16.44751 -36.354324 26.48819c-12.118111 10.04068 -26.22747 24.667542 -36.354332 33.755905c-10.126854 9.088364 -19.386696 16.965881 -24.406822 20.774277c-5.0201225 3.8083954 -6.4063873 0.3451538 -5.713909 2.076126c0.69247437 1.730957 6.0603676 8.56955 9.868763 8.309708c3.808403 -0.25984192 0.51750183 1.1237946 12.981628 -9.868774c12.464134 -10.992554 48.300087 -44.74803 61.803154 -56.08661c13.503052 -11.338577 14.021866 -8.482498 19.215225 -11.944885c5.193344 -3.4623718 8.915573 -5.5402374 11.94487 -8.8293915c3.0293121 -3.289154 3.4615173 -5.885391 6.2309723 -10.905518c2.7694702 -5.0201263 2.6824188 -10.040237 10.385834 -19.215225c7.703415 -9.174973 25.101486 -25.188095 35.83464 -35.83464c10.73317 -10.646545 21.1203 -21.3797 28.564316 -28.044617c7.4440002 -6.664917 10.387146 -8.136482 16.099731 -11.944885c5.7125854 -3.8083992 13.24234 -7.6163597 18.175842 -10.90551c4.933502 -3.2891502 9.520996 -7.35783 11.425201 -8.829395" fill-rule="nonzero"></path><path fill="#b56757" d="m33.978817 56.67338l0 0c2.4996758 -2.8310928 31.367733 18.57349 64.47861 47.808483c33.110886 29.234993 57.926163 55.229683 55.426483 58.06077l0 0c-2.4996796 2.8311005 22.315613 28.82579 55.426483 58.06079c33.110886 29.234985 61.978943 50.639557 64.47861 47.80847l36.208557 -41.009186c-2.4996948 2.8310852 -31.367737 -18.573502 -64.47862 -47.808487c-33.110886 -29.234985 -57.926163 -55.229683 -55.426483 -58.060776c2.4996643 -2.8310928 -22.315613 -28.82579 -55.426483 -58.060776c-33.110886 -29.23499 -61.978943 -50.639576 -64.47862 -47.80848z" fill-rule="nonzero"></path><path stroke="#85200c" stroke-width="3.0" stroke-linejoin="round" stroke-linecap="butt" d="m33.978817 56.67338l0 0c2.4996758 -2.8310928 31.367733 18.57349 64.47861 47.808483c33.110886 29.234993 57.926163 55.229683 55.426483 58.06077l0 0c-2.4996796 2.8311005 22.315613 28.82579 55.426483 58.06079c33.110886 29.234985 61.978943 50.639557 64.47861 47.80847l36.208557 -41.009186c-2.4996948 2.8310852 -31.367737 -18.573502 -64.47862 -47.808487c-33.110886 -29.234985 -57.926163 -55.229683 -55.426483 -58.060776c2.4996643 -2.8310928 -22.315613 -28.82579 -55.426483 -58.060776c-33.110886 -29.23499 -61.978943 -50.639576 -64.47862 -47.80848z" fill-rule="nonzero"></path><path fill="#fff6bd" d="m49.97661 48.40939l0 0c1.3622322 -1.4669762 27.80606 20.874393 59.063942 49.900845c31.257881 29.026451 55.493095 53.74627 54.130867 55.213234l0 0c-1.3622437 1.46698 22.87297 26.186783 54.13086 55.21324c31.257874 29.026443 57.70172 51.367813 59.063934 49.900833l19.73236 -21.249542c-1.3622437 1.46698 -27.80606 -20.87439 -59.06395 -49.90085c-31.257889 -29.026443 -55.493103 -53.74626 -54.13086 -55.21324c1.3622284 -1.4669647 -22.872986 -26.186775 -54.130875 -55.213226c-31.257874 -29.026455 -57.701706 -51.36783 -59.063942 -49.90085z" fill-rule="nonzero"></path><path stroke="#fff6bd" stroke-width="3.0" stroke-linejoin="round" stroke-linecap="butt" d="m49.97661 48.40939l0 0c1.3622322 -1.4669762 27.80606 20.874393 59.063942 49.900845c31.257881 29.026451 55.493095 53.74627 54.130867 55.213234l0 0c-1.3622437 1.46698 22.87297 26.186783 54.13086 55.21324c31.257874 29.026443 57.70172 51.367813 59.063934 49.900833l19.73236 -21.249542c-1.3622437 1.46698 -27.80606 -20.87439 -59.06395 -49.90085c-31.257889 -29.026443 -55.493103 -53.74626 -54.13086 -55.21324c1.3622284 -1.4669647 -22.872986 -26.186775 -54.130875 -55.213226c-31.257874 -29.026455 -57.701706 -51.36783 -59.063942 -49.90085z" fill-rule="nonzero"></path><path fill="#b56757" d="m284.2207 252.13646c-6.578308 -5.0201263 -27.352142 -19.820648 -39.469833 -30.120743c-12.1176605 -10.300079 -22.243652 -20.513992 -33.23622 -31.67978c-10.992554 -11.165802 -24.582672 -26.313217 -32.719147 -35.314972c-8.13649 -9.0017395 -11.858719 -13.242783 -16.099747 -18.695526c-4.241028 -5.452759 -1.72966 -7.26947 -9.346451 -14.021004c-7.616806 -6.7515335 -24.236221 -16.44751 -36.354332 -26.48819c-12.118111 -10.04068 -26.227478 -24.667542 -36.354332 -33.755905c-10.126862 -9.088364 -19.386703 -16.965881 -24.406826 -20.774277c-5.0201225 -3.8083992 -6.4063873 -0.34514618 -5.713909 -2.0761185c0.69247437 -1.7309685 6.0603676 -8.569553 9.868767 -8.30971c3.8083954 0.25984192 0.5174942 -1.1237984 12.981628 9.868765c12.464127 10.992565 48.300087 44.748035 61.803146 56.086613c13.503067 11.338585 14.021866 8.482506 19.215225 11.944885c5.193344 3.4623795 8.915573 5.540245 11.944885 8.829399c3.0292969 3.2891464 3.461502 5.8853836 6.2309723 10.905502c2.769455 5.0201263 2.6824036 10.040253 10.3858185 19.215225c7.703415 9.174988 25.101486 25.18811 35.83464 35.834656c10.73317 10.646545 21.1203 21.3797 28.564316 28.044617c7.4440002 6.664917 10.387146 8.136475 16.099731 11.944885c5.7125854 3.8083954 13.24234 7.6163483 18.175842 10.905502c4.9335327 3.289154 9.520996 7.357834 11.425201 8.8293915" fill-rule="nonzero"></path><path stroke="#cc4125" stroke-width="1.0" stroke-linejoin="round" stroke-linecap="butt" d="m284.2207 252.13646c-6.578308 -5.0201263 -27.352142 -19.820648 -39.469833 -30.120743c-12.1176605 -10.300079 -22.243652 -20.513992 -33.23622 -31.67978c-10.992554 -11.165802 -24.582672 -26.313217 -32.719147 -35.314972c-8.13649 -9.0017395 -11.858719 -13.242783 -16.099747 -18.695526c-4.241028 -5.452759 -1.72966 -7.26947 -9.346451 -14.021004c-7.616806 -6.7515335 -24.236221 -16.44751 -36.354332 -26.48819c-12.118111 -10.04068 -26.227478 -24.667542 -36.354332 -33.755905c-10.126862 -9.088364 -19.386703 -16.965881 -24.406826 -20.774277c-5.0201225 -3.8083992 -6.4063873 -0.34514618 -5.713909 -2.0761185c0.69247437 -1.7309685 6.0603676 -8.569553 9.868767 -8.30971c3.8083954 0.25984192 0.5174942 -1.1237984 12.981628 9.868765c12.464127 10.992565 48.300087 44.748035 61.803146 56.086613c13.503067 11.338585 14.021866 8.482506 19.215225 11.944885c5.193344 3.4623795 8.915573 5.540245 11.944885 8.829399c3.0292969 3.2891464 3.461502 5.8853836 6.2309723 10.905502c2.769455 5.0201263 2.6824036 10.040253 10.3858185 19.215225c7.703415 9.174988 25.101486 25.18811 35.83464 35.834656c10.73317 10.646545 21.1203 21.3797 28.564316 28.044617c7.4440002 6.664917 10.387146 8.136475 16.099731 11.944885c5.7125854 3.8083954 13.24234 7.6163483 18.175842 10.905502c4.9335327 3.289154 9.520996 7.357834 11.425201 8.8293915" fill-rule="nonzero"></path></g></svg>

