<svg id="Layer_1" data-name="Layer 1" xmlns="http://www.w3.org/2000/svg" viewBox="0 0 228 234.73"><defs><style>.cls-1{fill:none;stroke-width:3px;}.cls-1,.cls-3{stroke:#fff;stroke-miterlimit:10;}.cls-2,.cls-3{fill:#fff;}</style></defs><title>logo</title><line class="cls-1" y1="77.3" x2="228" y2="77.3"/><line class="cls-2" y1="77.3" x2="228" y2="77.3"/><line class="cls-1" y1="156.3" x2="228" y2="156.3"/><line class="cls-2" y1="156.3" x2="228" y2="156.3"/><line class="cls-1" x1="75.5" y1="1.8" x2="75.5" y2="233.8"/><line class="cls-2" x1="75.5" y1="1.8" x2="75.5" y2="233.8"/><line class="cls-1" x1="152.5" y1="1.8" x2="152.5" y2="233.8"/><line class="cls-2" x1="152.5" y1="1.8" x2="152.5" y2="233.8"/><path class="cls-3" d="M.68,10.73V1.22H42.8v9.51H27.39v41.9H16.08V10.73Z" transform="translate(0 0.5)"/><path class="cls-3" d="M120.21.22V51.63h-11.3V.22Z" transform="translate(0 0.5)"/><path class="cls-3" d="M214.53,14.94a11.54,11.54,0,0,0-5.94-4.75,11.72,11.72,0,0,0-4-.69A13.26,13.26,0,0,0,198.11,11a12.1,12.1,0,0,0-4.32,4,17.39,17.39,0,0,0-2.41,5.65,28.36,28.36,0,0,0-.76,6.55,26.37,26.37,0,0,0,.76,6.3A17,17,0,0,0,193.79,39a12.39,12.39,0,0,0,4.32,3.93,13.26,13.26,0,0,0,6.48,1.47c3.46,0,6.16-1.05,8.1-3.17a14.64,14.64,0,0,0,3.56-8.35H227.2A26.13,26.13,0,0,1,225,41.54a20.86,20.86,0,0,1-4.76,6.63,20.16,20.16,0,0,1-6.91,4.17,25.3,25.3,0,0,1-8.71,1.44A26.3,26.3,0,0,1,194,51.73,22.7,22.7,0,0,1,186,46.08a24.83,24.83,0,0,1-5-8.46,31.1,31.1,0,0,1-1.73-10.48,32.17,32.17,0,0,1,1.73-10.69,25.47,25.47,0,0,1,5-8.6A22.59,22.59,0,0,1,194,2.09a27.6,27.6,0,0,1,18.65-.87,21.93,21.93,0,0,1,6.77,3.57,19.36,19.36,0,0,1,4.93,5.79,20.79,20.79,0,0,1,2.45,7.92h-11A9.24,9.24,0,0,0,214.53,14.94Z" transform="translate(0 0.5)"/><path class="cls-3" d="M.86,98.83v-9.5H43v9.5H27.57v41.9H16.27V98.83Z" transform="translate(0 0.5)"/><path class="cls-3" d="M120.46,89.33l19.23,51.4H128l-3.89-11.44H104.84l-4,11.44H89.43l19.44-51.4Zm.65,31.53L114.63,102h-.14l-6.7,18.86Z" transform="translate(0 0.5)"/><path class="cls-3" d="M214.71,103a11.17,11.17,0,0,0-2.52-2.84,11.75,11.75,0,0,0-7.42-2.59,13.26,13.26,0,0,0-6.48,1.47,12.45,12.45,0,0,0-4.32,4,17.39,17.39,0,0,0-2.41,5.65,28.44,28.44,0,0,0-.76,6.56,26.37,26.37,0,0,0,.76,6.3,17,17,0,0,0,2.41,5.5,12.46,12.46,0,0,0,4.32,3.93,13.26,13.26,0,0,0,6.48,1.47,10.45,10.45,0,0,0,8.1-3.16,14.71,14.71,0,0,0,3.57-8.36h10.94a26.25,26.25,0,0,1-2.23,8.72,21,21,0,0,1-4.75,6.62,20.33,20.33,0,0,1-6.92,4.18,25.54,25.54,0,0,1-8.71,1.44,26.37,26.37,0,0,1-10.62-2.06,22.66,22.66,0,0,1-8-5.65,25,25,0,0,1-5-8.46,31.08,31.08,0,0,1-1.73-10.47,32.23,32.23,0,0,1,1.73-10.7,25.73,25.73,0,0,1,5-8.6,22.68,22.68,0,0,1,8-5.76,27.5,27.5,0,0,1,18.65-.86,21.59,21.59,0,0,1,6.77,3.56,19.28,19.28,0,0,1,4.93,5.8,20.68,20.68,0,0,1,2.45,7.92H216A9.23,9.23,0,0,0,214.71,103Z" transform="translate(0 0.5)"/><path class="cls-3" d="M.86,191.83v-9.5H43v9.5H27.57v41.9H16.27v-41.9Z" transform="translate(0 0.5)"/><path class="cls-3" d="M91,195.55a25.71,25.71,0,0,1,5-8.6,22.72,22.72,0,0,1,8-5.76,28.13,28.13,0,0,1,21.28,0,22.75,22.75,0,0,1,7.92,5.76,25.71,25.71,0,0,1,5,8.6,32,32,0,0,1,1.73,10.7,30.83,30.83,0,0,1-1.73,10.47,25,25,0,0,1-5,8.46,22.73,22.73,0,0,1-7.92,5.65,28.51,28.51,0,0,1-21.28,0,22.7,22.7,0,0,1-8-5.65,25,25,0,0,1-5-8.46,30.83,30.83,0,0,1-1.73-10.47A32,32,0,0,1,91,195.55Zm10.33,17a16.75,16.75,0,0,0,2.41,5.5,12.29,12.29,0,0,0,4.32,3.93,15,15,0,0,0,13,0,12.46,12.46,0,0,0,4.32-3.93,17,17,0,0,0,2.41-5.5,25.87,25.87,0,0,0,.76-6.3,27.91,27.91,0,0,0-.76-6.56,17.39,17.39,0,0,0-2.41-5.65,12.45,12.45,0,0,0-4.32-4,15,15,0,0,0-13,0,12.28,12.28,0,0,0-4.32,4,17.18,17.18,0,0,0-2.41,5.65,27.91,27.91,0,0,0-.76,6.56A25.87,25.87,0,0,0,101.35,212.55Z" transform="translate(0 0.5)"/><path class="cls-3" d="M221.18,182.33v9.5H194v11H219v8.78H194v12.6h27.72v9.5h-39v-51.4Z" transform="translate(0 0.5)"/></svg>