<?xml version="1.0" standalone="yes"?>

<svg version="1.1" viewBox="0.0 0.0 353.9186351706037 284.59580052493436" fill="none" stroke="none" stroke-linecap="square" stroke-miterlimit="10" xmlns="http://www.w3.org/2000/svg" xmlns:xlink="http://www.w3.org/1999/xlink"><clipPath id="p.0"><path d="m0 0l353.91864 0l0 284.5958l-353.91864 0l0 -284.5958z" clip-rule="nonzero"></path></clipPath><g clip-path="url(#p.0)"><path fill="#000000" fill-opacity="0.0" d="m0 0l353.91864 0l0 284.5958l-353.91864 0z" fill-rule="nonzero"></path><path fill="#f5f6e0" fill-opacity="0.8269" d="m243.07677 40.87159c18.220749 7.0224457 79.034134 5.528633 93.88246 25.467216c14.848297 19.938583 -2.6332703 71.3815 -4.7926636 94.164276c-2.1593933 22.782776 -0.98013306 29.930527 -8.163696 42.53238c-7.183563 12.601837 -22.385101 22.040955 -34.937683 33.07866c-12.552551 11.037704 -20.766235 28.275742 -40.377777 33.147537c-19.611526 4.871765 -48.27353 -3.3775024 -77.29146 -3.9168396c-29.017914 -0.5393677 -72.49931 2.2766113 -96.81608 0.6807251c-24.316761 -1.5958862 -38.55702 -2.230133 -49.084496 -10.255997c-10.527478 -8.025864 -17.115011 -26.981583 -14.080371 -37.899216c3.0346403 -10.917618 21.792988 -18.770248 32.28821 -27.606506c10.495224 -8.836243 24.922886 -14.9123535 30.683125 -25.410965c5.760231 -10.498611 2.9002151 -28.865067 3.8782883 -37.580666c0.97808075 -8.715584 -1.289238 -1.6163635 1.9901657 -14.712883c3.2794037 -13.096519 8.363953 -48.336258 17.686256 -63.866238c9.322311 -15.52998 24.35949 -23.516886 38.247574 -29.31364c13.888077 -5.796753 29.83992 -6.270999 45.080917 -5.4668827c15.240997 0.80411625 36.063843 5.7984066 46.36505 10.29158c10.301193 4.4931736 -2.7786102 9.645014 15.442169 16.66746z" fill-rule="nonzero"></path><path stroke="#fff6bd" stroke-width="1.0" stroke-linejoin="round" stroke-linecap="butt" d="m243.07677 40.87159c18.220749 7.0224457 79.034134 5.528633 93.88246 25.467216c14.848297 19.938583 -2.6332703 71.3815 -4.7926636 94.164276c-2.1593933 22.782776 -0.98013306 29.930527 -8.163696 42.53238c-7.183563 12.601837 -22.385101 22.040955 -34.937683 33.07866c-12.552551 11.037704 -20.766235 28.275742 -40.377777 33.147537c-19.611526 4.871765 -48.27353 -3.3775024 -77.29146 -3.9168396c-29.017914 -0.5393677 -72.49931 2.2766113 -96.81608 0.6807251c-24.316761 -1.5958862 -38.55702 -2.230133 -49.084496 -10.255997c-10.527478 -8.025864 -17.115011 -26.981583 -14.080371 -37.899216c3.0346403 -10.917618 21.792988 -18.770248 32.28821 -27.606506c10.495224 -8.836243 24.922886 -14.9123535 30.683125 -25.410965c5.760231 -10.498611 2.9002151 -28.865067 3.8782883 -37.580666c0.97808075 -8.715584 -1.289238 -1.6163635 1.9901657 -14.712883c3.2794037 -13.096519 8.363953 -48.336258 17.686256 -63.866238c9.322311 -15.52998 24.35949 -23.516886 38.247574 -29.31364c13.888077 -5.796753 29.83992 -6.270999 45.080917 -5.4668827c15.240997 0.80411625 36.063843 5.7984066 46.36505 10.29158c10.301193 4.4931736 -2.7786102 9.645014 15.442169 16.66746z" fill-rule="nonzero"></path><path fill="#000000" fill-opacity="0.0" d="m242.22278 41.87497c18.318542 7.2136383 79.309845 6.0676956 94.32248 26.327583c15.012634 20.259888 -2.2163086 72.19671 -4.2466736 95.23174c-2.030365 23.03505 -0.80493164 30.273087 -7.935547 42.978485c-7.1305847 12.705414 -22.322632 22.163116 -34.848022 33.25392c-12.525421 11.090805 -20.661682 28.48021 -40.30446 33.29091c-19.642776 4.8106995 -48.44194 -3.7067566 -77.552216 -4.4266663c-29.110275 -0.71990967 -72.70848 1.8676453 -97.10944 0.10714722c-24.400963 -1.7605286 -38.68874 -2.487671 -49.296345 -10.670197c-10.607605 -8.182541 -17.328241 -27.398514 -14.349284 -38.42502c2.9789562 -11.026489 21.748173 -18.85788 32.223026 -27.733963c10.47485 -8.876068 24.910656 -14.936279 30.626072 -25.522507c5.7154236 -10.586227 2.737259 -29.1837 3.6664429 -37.994873c0.92918396 -8.811188 -1.3028183 -1.6429291 1.9086761 -14.872223c3.211502 -13.229294 8.101845 -48.848747 17.360313 -64.503525c9.258476 -15.654785 24.294296 -23.644356 38.19053 -29.42518c13.896225 -5.780822 29.894241 -6.1647778 45.186844 -5.259758c15.292603 0.9050188 36.209152 6.0825214 46.568756 10.689875c10.359604 4.607355 -2.7297058 9.740612 15.588852 16.95425z" fill-rule="nonzero"></path><path stroke="#bf9000" stroke-width="1.0" stroke-linejoin="round" stroke-linecap="butt" d="m242.22278 41.87497c18.318542 7.2136383 79.309845 6.0676956 94.32248 26.327583c15.012634 20.259888 -2.2163086 72.19671 -4.2466736 95.23174c-2.030365 23.03505 -0.80493164 30.273087 -7.935547 42.978485c-7.1305847 12.705414 -22.322632 22.163116 -34.848022 33.25392c-12.525421 11.090805 -20.661682 28.48021 -40.30446 33.29091c-19.642776 4.8106995 -48.44194 -3.7067566 -77.552216 -4.4266663c-29.110275 -0.71990967 -72.70848 1.8676453 -97.10944 0.10714722c-24.400963 -1.7605286 -38.68874 -2.487671 -49.296345 -10.670197c-10.607605 -8.182541 -17.328241 -27.398514 -14.349284 -38.42502c2.9789562 -11.026489 21.748173 -18.85788 32.223026 -27.733963c10.47485 -8.876068 24.910656 -14.936279 30.626072 -25.522507c5.7154236 -10.586227 2.737259 -29.1837 3.6664429 -37.994873c0.92918396 -8.811188 -1.3028183 -1.6429291 1.9086761 -14.872223c3.211502 -13.229294 8.101845 -48.848747 17.360313 -64.503525c9.258476 -15.654785 24.294296 -23.644356 38.19053 -29.42518c13.896225 -5.780822 29.894241 -6.1647778 45.186844 -5.259758c15.292603 0.9050188 36.209152 6.0825214 46.568756 10.689875c10.359604 4.607355 -2.7297058 9.740612 15.588852 16.95425z" fill-rule="nonzero"></path><path fill="#e69138" fill-opacity="0.6962" d="m144.37495 70.2566l0 0c18.504135 -9.546692 39.869904 -4.9482574 47.7218 10.270889l0 0c3.7706146 7.308487 3.856842 16.138817 0.23971558 24.548424c-3.6171112 8.409599 -10.641296 15.709602 -19.527298 20.294083l0 0c-18.50412 9.546692 -39.869904 4.9482574 -47.721794 -10.270889l0 0c-7.851898 -15.219139 0.78344727 -35.295815 19.287575 -44.842506z" fill-rule="nonzero"></path><path fill="#e69138" fill-opacity="0.8654" d="m144.9256 75.55315l0 0c18.797836 -9.698227 40.84137 -4.370476 49.235596 11.899864l0 0c4.0310516 7.8132935 4.31102 17.156662 0.7783203 25.97467c-3.5326996 8.818001 -10.588684 16.388329 -19.615738 21.04557l0 0c-18.797836 9.698227 -40.84137 4.3704834 -49.235603 -11.899857l0 0c-8.394226 -16.27034 0.03957367 -37.32202 18.837425 -47.02025z" fill-rule="nonzero"></path><path fill="#f5f6e0" d="m159.99832 93.255424c-7.976898 -2.8367996 -11.5169525 -7.869011 -8.333878 -11.846649c3.1830902 -3.9776306 12.136154 -5.7096024 21.07698 -4.077339c8.940811 1.6322632 15.192108 6.1399765 14.716553 10.611908z" fill-rule="nonzero"></path></g></svg>

