<?xml version="1.0" standalone="yes"?>

<svg version="1.1" viewBox="0.0 0.0 529.0551181102362 122.83727034120734" fill="none" stroke="none" stroke-linecap="square" stroke-miterlimit="10" xmlns="http://www.w3.org/2000/svg" xmlns:xlink="http://www.w3.org/1999/xlink"><clipPath id="p.0"><path d="m0 0l529.0551 0l0 122.83727l-529.0551 0l0 -122.83727z" clip-rule="nonzero"></path></clipPath><g clip-path="url(#p.0)"><path fill="#000000" fill-opacity="0.0" d="m0 0l529.0551 0l0 122.83727l-529.0551 0z" fill-rule="nonzero"></path><path fill="#806000" fill-opacity="0.9346" d="m12.1622925 71.10499l39.52537 0c-4.3658524 0 -7.905075 6.2621384 -7.905075 13.986877c0 7.724739 3.5392227 13.986877 7.905075 13.986877l-39.52537 0l0 0c-4.3658524 0 -7.9050746 -6.2621384 -7.9050746 -13.986877c0 -7.724739 3.5392222 -13.986877 7.9050746 -13.986877z" fill-rule="nonzero"></path><path fill="#806000" fill-opacity="0.9346" d="m511.51486 71.10499l-39.52536 0c4.3658447 0 7.90506 6.2621384 7.90506 13.986877c0 7.724739 -3.539215 13.986877 -7.90506 13.986877l39.52536 0l0 0c4.3658752 0 7.90506 -6.2621384 7.90506 -13.986877c0 -7.724739 -3.5391846 -13.986877 -7.90506 -13.986877z" fill-rule="nonzero"></path><path fill="#cbac51" fill-opacity="0.9038" d="m9.120735 71.20473l0 0c0 -3.0656586 26.460327 -6.005745 73.56001 -8.173489c47.099693 -2.1677437 110.98058 -3.3855705 177.5896 -3.3855705l0 0c138.70609 0 251.1496 5.1751633 251.1496 11.559059l0 0c0 6.3838882 -112.44351 11.5590515 -251.1496 11.5590515l0 0c-138.70612 0 -251.14963 -5.1751633 -251.14963 -11.5590515z" fill-rule="nonzero"></path><path fill="#806000" fill-opacity="0.9346" d="m38.51451 99.23934l439.88434 0c1.0219116 0 2.0019531 -0.40595245 2.7245483 -1.1285477c0.7225952 -0.7225952 1.1285706 -1.7026443 1.1285706 -2.7245483l0 -19.265015c0 -0.0020599365 -0.0016784668 -0.003730774 -0.003753662 -0.003730774l-447.58682 0.003730774l0 0c-0.0020599365 0 -0.003730774 0.0016708374 -0.003730774 0.003730774l0.003730774 19.261284l0 0c0 2.128006 1.7250862 3.853096 3.8530922 3.853096z" fill-rule="nonzero"></path><path fill="#987200" fill-opacity="0.8808" d="m15.160129 42.335957l39.52537 0c-4.3658524 0 -7.905075 6.2621384 -7.905075 13.986877c0 7.7247353 3.5392227 13.986874 7.905075 13.986874l-39.52537 0l0 0c-4.3658524 0 -7.9050746 -6.2621384 -7.9050746 -13.986874c0 -7.724739 3.5392222 -13.986877 7.9050746 -13.986877z" fill-rule="nonzero"></path><path fill="#987200" fill-opacity="0.8808" d="m514.5127 42.335957l-39.52536 0c4.3658447 0 7.9050903 6.2621384 7.9050903 13.986877c0 7.7247353 -3.5392456 13.986874 -7.9050903 13.986874l39.52536 0l0 0c4.3658447 0 7.9050903 -6.2621384 7.9050903 -13.986874c0 -7.724739 -3.5392456 -13.986877 -7.9050903 -13.986877z" fill-rule="nonzero"></path><path fill="#e8c55c" fill-opacity="0.9038" d="m12.118571 42.435696l0 0c0 -3.065651 26.460327 -6.005745 73.56002 -8.173485c47.099686 -2.1677437 110.980576 -3.3855705 177.5896 -3.3855705l0 0c138.70609 0 251.1496 5.175167 251.1496 11.559055l0 0c0 6.3838882 -112.44351 11.559055 -251.1496 11.559055l0 0c-138.70612 0 -251.14961 -5.175167 -251.14961 -11.559055z" fill-rule="nonzero"></path><path fill="#987200" fill-opacity="0.8808" d="m41.51235 70.470314l439.88434 0c1.0219116 0 2.0019531 -0.40595245 2.7245483 -1.1285477c0.7225952 -0.7225952 1.1285706 -1.7026443 1.1285706 -2.7245483l0 -19.265015c0 -0.0020599365 -0.0016784668 -0.003730774 -0.003753662 -0.003730774l-447.58682 0.003730774l0 0c-0.0020599365 0 -0.0037269592 0.0016670227 -0.0037269592 0.0037269592l0.0037269592 19.261288l0 0c0 2.128006 1.72509 3.853096 3.853096 3.853096z" fill-rule="nonzero"></path><path fill="#ffe599" d="m187.90552 13.826772l119.36221 0l0 25.062992l-119.36221 0z" fill-rule="nonzero"></path><path fill="#cbb77a" d="m307.26773 13.826772l8.354309 -8.354331l0 25.062992l-8.354309 8.35433z" fill-rule="nonzero"></path><path fill="#ffeaad" d="m187.90552 13.826772l8.354324 -8.354331l119.3622 0l-8.354309 8.354331z" fill-rule="nonzero"></path><path fill="#000000" fill-opacity="0.0" d="m187.90552 13.826772l8.354324 -8.354331l119.3622 0l0 25.062992l-8.354309 8.35433l-119.36221 0zm0 0l119.36221 0l8.354309 -8.354331m-8.354309 8.354331l0 25.062992" fill-rule="nonzero"></path><path stroke="#ffe599" stroke-width="1.0" stroke-linejoin="round" stroke-linecap="butt" d="m187.90552 13.826772l8.354324 -8.354331l119.3622 0l0 25.062992l-8.354309 8.35433l-119.36221 0zm0 0l119.36221 0l8.354309 -8.354331m-8.354309 8.354331l0 25.062992" fill-rule="nonzero"></path><path fill="#dfa800" fill-opacity="0.7192" d="m186.68744 33.351707c-5.2698975 0.30402374 -23.308823 0.7095337 -31.619415 1.8241463c-8.310593 1.1146088 -18.953201 4.052929 -18.244095 4.8635178c0.7090912 0.810585 20.57306 -0.6080513 22.498688 0c1.9256287 0.6080475 -11.654419 2.6347313 -10.944885 3.6482925c0.7095337 1.0135612 13.174988 0.101924896 15.202103 2.4330711c2.0271149 2.3311462 -3.0393677 4.1552925 -3.0393677 11.553806c0 7.39851 2.0258026 24.222225 3.0393677 32.83727c1.0135651 8.615051 0.9133911 16.318901 3.0419922 18.85302c2.1286163 2.5341187 8.209534 2.1286087 9.72966 -3.6482925c1.5201263 -5.7769012 -2.2305298 -24.323715 -0.60891724 -31.013123c1.6215973 -6.689415 6.993866 -8.008316 10.338577 -9.12336c3.3447113 -1.1150513 8.007004 -0.30358887 9.72966 2.4330673c1.7226562 2.7366562 -1.116806 11.250221 0.6062927 13.986877c1.7230988 2.7366562 6.793091 4.2576523 9.732285 2.4330673c2.9391937 -1.8245773 5.774719 -8.920822 7.902893 -13.380577c2.1281738 -4.459755 3.143036 -10.337704 4.8661346 -13.377949c1.7230988 -3.040245 3.3442688 -2.2283478 5.4724426 -4.8635178c2.1281738 -2.63517 1.5196838 -9.325897 7.296585 -10.947506c5.7769165 -1.6216087 22.804031 1.0148735 27.364838 1.2178459" fill-rule="nonzero"></path><path stroke="#ffc000" stroke-width="1.0" stroke-linejoin="round" stroke-linecap="butt" d="m186.68744 33.351707c-5.2698975 0.30402374 -23.308823 0.7095337 -31.619415 1.8241463c-8.310593 1.1146088 -18.953201 4.052929 -18.244095 4.8635178c0.7090912 0.810585 20.57306 -0.6080513 22.498688 0c1.9256287 0.6080475 -11.654419 2.6347313 -10.944885 3.6482925c0.7095337 1.0135612 13.174988 0.101924896 15.202103 2.4330711c2.0271149 2.3311462 -3.0393677 4.1552925 -3.0393677 11.553806c0 7.39851 2.0258026 24.222225 3.0393677 32.83727c1.0135651 8.615051 0.9133911 16.318901 3.0419922 18.85302c2.1286163 2.5341187 8.209534 2.1286087 9.72966 -3.6482925c1.5201263 -5.7769012 -2.2305298 -24.323715 -0.60891724 -31.013123c1.6215973 -6.689415 6.993866 -8.008316 10.338577 -9.12336c3.3447113 -1.1150513 8.007004 -0.30358887 9.72966 2.4330673c1.7226562 2.7366562 -1.116806 11.250221 0.6062927 13.986877c1.7230988 2.7366562 6.793091 4.2576523 9.732285 2.4330673c2.9391937 -1.8245773 5.774719 -8.920822 7.902893 -13.380577c2.1281738 -4.459755 3.143036 -10.337704 4.8661346 -13.377949c1.7230988 -3.040245 3.3442688 -2.2283478 5.4724426 -4.8635178c2.1281738 -2.63517 1.5196838 -9.325897 7.296585 -10.947506c5.7769165 -1.6216087 22.804031 1.0148735 27.364838 1.2178459" fill-rule="nonzero"></path></g></svg>

